<?xml version="1.0" encoding="UTF-8"?>
<svg id="Capa_2" data-name="Capa 2" xmlns="http://www.w3.org/2000/svg" viewBox="0 0 226.15 45.07">
  <g id="Capa_1-2" data-name="Capa 1">
    <g>
      <polygon points="148.06 34.25 128.42 34.22 128.4 41.34 151.49 41.34 151.41 44.29 124.93 44.31 124.91 21.93 150.91 21.94 150.91 24.78 128.41 24.79 128.38 31.46 148.07 31.45 148.06 34.25"/>
      <path d="M25.84,41.63c-4.12,3.73-11.8,3.92-17.34,2.89-3.16-.58-5.89-1.72-8.49-3.72l2.02-2.37c5.89,5.38,21.62,4.96,22.03-.42.2-2.65-3.51-3.41-6.8-3.69l-7.26-.62c-4.13-.35-8.68-1.54-9.15-5.3-.5-3.99,3.43-6.19,7.64-6.86,5.85-.94,12.81-.53,17.81,2.98l-1.78,2.44c-5.65-4.74-20.61-3.98-20.18,1.03.47,5.49,20.97.4,23.06,8.13.58,2.13.01,4.1-1.55,5.52Z"/>
      <path d="M220.44,42.44c-6.15,3.49-14.01,3.54-19.98,0-3.41-2.02-5.41-5.38-5.52-8.96-.12-3.87,1.72-7.19,4.98-9.43,5.63-3.87,15.33-3.84,21.25-.02,3.31,2.14,5.08,5.58,4.97,9.44-.1,3.64-2.12,6.93-5.71,8.97ZM218.46,40.13c2.68-1.56,4.12-4.02,4.19-6.75s-1.13-5.34-3.59-7c-4.91-3.31-11.65-3.28-16.74-.24-2.57,1.54-3.88,4.27-3.87,7.03s1.5,5.33,4.05,6.88c4.76,2.89,11.03,2.96,15.96.08Z"/>
      <path d="M83.75,27.88v10.63c.01,1.26.97,3.18,2.46,3.18h15.1c.59.01,1.28.96,1.2,1.45-.09.56-.85,1.22-1.5,1.22l-14.81-.02c-2.71,0-5.17-2.5-5.17-5.27v-11.74c.01-2.99,2.68-5.31,5.53-5.31l15.86-.02c2.04,0,3.71,1.67,4.17,3.61l4.16,17.59c.16.66-.27,1.46-.81,1.71-.57.28-1.67-.14-1.85-.87l-4.2-17.85c-.16-.7-1.04-1.52-1.74-1.52l-15.39.02c-1.77,0-3.04,1.5-3.04,3.21Z"/>
      <path d="M167.38,40.56c5.91,3.01,14.2,1.98,18.15-3.36l2.75,1.92c-5.35,6.72-16.38,7.54-23.39,3.48-3.53-2.04-5.71-5.28-5.78-9.17s1.8-7.57,5.49-9.7c5.8-3.35,13.19-3.36,19.25-.51,1.8.85,3.22,2.19,4.08,3.6l-2.67,1.62c-4.58-5.3-13.28-5.95-19.03-2.12-2.54,1.69-3.78,4.46-3.59,7.4.17,2.75,1.89,5.37,4.75,6.83Z"/>
      <polygon points="63.29 44.18 59.87 44.28 59.87 24.79 48.32 24.81 48.29 21.94 74.78 21.95 74.73 24.78 63.3 24.8 63.29 44.18"/>
      <path d="M115.4,42.94c.25.95,0,1.72-.81,2.02-.68.25-1.63-.17-1.85-1.06l-3.79-15.48c-.88-3.6-.13-7.43.99-10.91l5.27-16.45c.21-.65,1.07-1.15,1.61-1.05.74.14,1.3,1.01,1.04,1.82l-5.64,17.62c-1.41,4.4-.74,8.72.41,13.04l2.77,10.45Z"/>
      <rect x="26.99" y="31.29" width="22.46" height="3.61" transform="translate(4.94 71.15) rotate(-89.72)"/>
    </g>
  </g>
</svg>